<svg width="35" height="35" viewBox="0 0 35 35" fill="none" xmlns="http://www.w3.org/2000/svg">
<rect width="35" height="35" rx="7.35" fill="#2E001F"/>
<path d="M24.6654 28.2111H10.3348C8.39039 28.2111 6.80566 26.6535 6.80566 24.7423V11.2301C6.80566 9.31886 8.39039 7.76123 10.3348 7.76123H24.6557C26.6098 7.76123 28.1848 9.31886 28.1848 11.2301V24.7327C28.1946 26.6535 26.6098 28.2111 24.6654 28.2111Z" fill="#2E001F"/>
<path fill-rule="evenodd" clip-rule="evenodd" d="M15.0597 17.2696L17.7819 22.4108C17.8305 22.4872 17.8013 22.5637 17.7236 22.5637H16.0319C15.9249 22.5637 15.8763 22.535 15.8277 22.4394C15.6669 22.1133 15.5054 21.7872 15.343 21.4595C14.8775 20.5195 14.4052 19.5658 13.9222 18.5597H13.9027C13.3194 19.8402 12.6777 21.1876 12.0555 22.449C12.0069 22.5255 11.9583 22.5541 11.8805 22.5541H10.2763C10.1791 22.5541 10.1694 22.4777 10.218 22.4203L12.8819 17.4321L10.3055 12.3865C10.2472 12.3101 10.3055 12.2527 10.3638 12.2527H12.0361C12.1333 12.2527 12.1722 12.2718 12.2111 12.3578C12.8236 13.6192 13.4458 14.9189 14.0291 16.1898H14.0486C14.6124 14.9284 15.2347 13.6192 15.8374 12.3674L15.8392 12.3646C15.8868 12.2898 15.9164 12.2432 16.0124 12.2432H17.5777C17.6555 12.2432 17.6847 12.3005 17.6361 12.3769L15.0597 17.2696ZM18.2583 18.8273C18.2583 16.6007 19.7652 14.8615 22.1569 14.8615C22.3611 14.8615 22.468 14.8615 22.6624 14.8806V12.3483C22.6624 12.2909 22.7111 12.2527 22.7597 12.2527H24.2958C24.3736 12.2527 24.393 12.2814 24.393 12.3292V21.1016C24.393 21.3596 24.393 21.6845 24.4416 22.0381C24.4416 22.0954 24.4222 22.1145 24.3638 22.1432C23.5472 22.5255 22.6916 22.6975 21.8749 22.6975C19.7652 22.707 18.2583 21.4265 18.2583 18.8273ZM22.0986 16.2854C22.3319 16.2854 22.5263 16.3236 22.6624 16.3809V21.1112C22.4777 21.1876 22.2249 21.2163 21.9916 21.2163C20.893 21.2163 20.018 20.5091 20.018 18.7508C20.018 17.2123 20.8736 16.2854 22.0986 16.2854Z" fill="#FFD9F2"/>
</svg>
