<svg width="35" height="35" viewBox="0 0 35 35" fill="none" xmlns="http://www.w3.org/2000/svg">
<g clip-path="url(#clip0_478_28842)">
<rect width="35" height="35" rx="7.5" fill="#32CAFA"/>
<rect x="1.25" y="1.25" width="32.5" height="32.5" rx="7.5" fill="#021D25"/>
<path d="M7.5 9.01158C7.5 8.90769 7.72424 8.82792 7.85397 8.82792C8.87324 8.77597 10.3688 8.75 11.9385 8.75C16.3288 8.75 18.0393 11.158 18.0393 14.2432C18.0393 18.2727 15.1205 19.9999 11.54 19.9999C10.9396 19.9999 10.7302 19.9739 10.3113 19.9739V26.0663C10.3113 26.1981 10.2595 26.25 10.1279 26.25H7.68347C7.55189 26.25 7.5 26.1981 7.5 26.0663V9.01158ZM10.3113 17.436C10.6764 17.462 10.9655 17.462 11.5919 17.462C13.447 17.462 15.1909 16.8071 15.1909 14.297C15.1909 12.2823 13.9455 11.2619 11.8273 11.2619C11.2009 11.2619 10.5986 11.2879 10.3113 11.3139V17.436ZM23.9455 15.5511C22.6909 15.5511 22.2721 16.18 22.2721 16.7032C22.2721 17.2783 22.5593 17.6716 24.2328 18.5343C26.7161 19.7383 27.5 20.8885 27.5 22.5897C27.5 25.1276 25.5652 26.25 22.9522 26.25C21.5678 26.25 20.3873 25.9698 19.709 25.5765C19.6053 25.5245 19.5775 25.4466 19.5775 25.3149V23.2168C19.5775 23.0591 19.6553 23.0071 19.7609 23.085C20.7543 23.7399 21.907 24.0275 22.9522 24.0275C24.2068 24.0275 24.7294 23.5043 24.7294 22.7975C24.7294 22.2224 24.3643 21.7252 22.7687 20.8885C20.5208 19.8162 19.5793 18.7161 19.5793 16.885C19.5793 14.8443 21.1731 13.3059 23.9437 13.3059C25.3021 13.3059 26.262 13.3527 26.7847 13.5883C26.9162 13.6663 26.9422 13.798 26.9422 13.9019V16.0743C26.9422 16.2041 26.8643 16.2839 26.7068 16.232C26.2028 15.9327 25.2001 15.5511 23.9455 15.5511Z" fill="#32CAFA"/>
</g>
<defs>
<clipPath id="clip0_478_28842">
<rect width="35" height="35" fill="white"/>
</clipPath>
</defs>
</svg>
