<svg width="36" height="36" viewBox="0 0 36 36" fill="none" xmlns="http://www.w3.org/2000/svg">
<path d="M33.75 18C33.75 26.694 26.7019 33.75 18 33.75C9.29812 33.75 2.25 26.694 2.25 18C2.25 9.29812 9.29812 2.25 18 2.25C26.7019 2.25 33.75 9.29812 33.75 18Z" fill="#283544"/>
<path d="M25.3824 14.0146C25.2964 14.0647 23.2505 15.1228 23.2505 17.4688C23.3469 20.1444 25.8324 21.0826 25.875 21.0826C25.8324 21.1328 25.4998 22.3608 24.5145 23.6481C23.7326 24.757 22.8647 25.875 21.5469 25.875C20.2933 25.875 19.8433 25.136 18.3969 25.136C16.8435 25.136 16.404 25.875 15.2147 25.875C13.8969 25.875 12.9647 24.6971 12.1402 23.5986C11.069 22.1609 10.1585 19.9047 10.1264 17.7384C10.1047 16.5905 10.3409 15.462 10.9404 14.5036C11.7866 13.1655 13.2973 12.2571 14.9471 12.2272C16.2112 12.1875 17.3362 13.0359 18.1076 13.0359C18.8469 13.0359 20.229 12.2272 21.7928 12.2272C22.4678 12.2278 24.2679 12.4173 25.3824 14.0146ZM18.0007 11.998C17.7757 10.9497 18.3969 9.90133 18.9754 9.23262C19.7147 8.42391 20.8824 7.875 21.8893 7.875C21.9536 8.92333 21.5462 9.95147 20.8181 10.7003C20.1647 11.509 19.0397 12.1178 18.0007 11.998Z" fill="white"/>
</svg>
