<svg width="48" height="48" viewBox="0 0 48 48" fill="none" xmlns="http://www.w3.org/2000/svg">
<path d="M33.7238 43.4985L17.5071 6.06067C17.2277 5.42327 16.7799 4.60084 15.6207 4.60084C14.5849 4.60084 14.0915 5.08975 13.813 5.61545C13.957 5.23635 14.3929 4.49992 15.6567 4.49992H26.849C27.8805 4.49992 28.3753 5.09225 28.6007 5.63456L45 43.4985H33.7238Z" fill="url(#paint0_linear_718_12338)"/>
<path d="M13.8129 5.61568L3.53902 29.5336C3.22615 30.2954 3 30.7502 3 31.3548C3 32.4381 3.84399 33.5241 5.97331 33.5241H13.0232L21.2157 14.6226L17.507 6.0609C17.2277 5.4235 16.7798 4.60107 15.6207 4.60107C14.5849 4.60107 14.0915 5.09 13.8129 5.61568Z" fill="url(#paint1_linear_718_12338)"/>
<path d="M5.97336 33.5239L29.3641 33.5238L15.7899 41.7241C15.1283 42.1057 12.6118 43.4999 10.8462 43.4999C9.70808 43.4999 9.11676 43.0812 8.54897 42.1089L3.36302 32.7341C3.00576 32.0622 3 31.8384 3 31.3545C3 32.4378 3.84404 33.5239 5.97336 33.5239Z" fill="url(#paint2_linear_718_12338)"/>
<defs>
<linearGradient id="paint0_linear_718_12338" x1="21.074" y1="5.22619" x2="24.5523" y2="13.7205" gradientUnits="userSpaceOnUse">
<stop stop-color="#29A5E3"/>
<stop offset="0.515" stop-color="#356EB9"/>
<stop offset="1" stop-color="#394DA5"/>
</linearGradient>
<linearGradient id="paint1_linear_718_12338" x1="18.5798" y1="7.71989" x2="16.2127" y2="13.4205" gradientUnits="userSpaceOnUse">
<stop stop-color="#236736"/>
<stop offset="0.493" stop-color="#6BA443"/>
<stop offset="1" stop-color="#86C146"/>
</linearGradient>
<linearGradient id="paint2_linear_718_12338" x1="6.25951" y1="37.5903" x2="11.228" y2="36.5751" gradientUnits="userSpaceOnUse">
<stop stop-color="#2B7A77"/>
<stop offset="0.51" stop-color="#4EBAA9"/>
<stop offset="1" stop-color="#5CC2B1"/>
</linearGradient>
</defs>
</svg>
