<svg width="36" height="36" viewBox="0 0 36 36" fill="none" xmlns="http://www.w3.org/2000/svg">
<path d="M0.927734 5.58502C0.927734 4.13739 2.10126 2.96387 3.54888 2.96387C4.9965 2.96387 6.17002 4.13739 6.17002 5.58502V22.2293H0.927734V5.58502Z" fill="#635EFF"/>
<path fill-rule="evenodd" clip-rule="evenodd" d="M10.7399 10.4487C10.0661 11.0601 9.64307 11.9428 9.64307 12.9243C9.64307 14.0865 10.2364 15.1102 11.1366 15.7089C8.28044 16.3629 6.17002 18.9001 6.17002 21.9017C6.17002 24.9033 8.28044 27.4405 11.1366 28.0945C10.2364 28.6932 9.64307 29.7169 9.64307 30.8791C9.64307 31.8606 10.0661 32.7433 10.7399 33.3547C5.19054 32.4733 0.927734 27.6954 0.927734 21.9017C0.927734 16.108 5.19054 11.3301 10.7399 10.4487Z" fill="#635EFF"/>
<path fill-rule="evenodd" clip-rule="evenodd" d="M13.3782 15.5455C16.9429 15.5455 19.8 18.4093 19.8 21.9018C19.8 25.3943 16.9429 28.2581 13.3782 28.2581C11.9306 28.2581 10.7571 29.4316 10.7571 30.8792C10.7571 32.3269 11.9306 33.5004 13.3782 33.5004C19.8021 33.5004 25.0424 28.3254 25.0424 21.9018C25.0424 15.4781 19.8021 10.3032 13.3782 10.3032C11.9306 10.3032 10.7571 11.4767 10.7571 12.9243C10.7571 14.372 11.9306 15.5455 13.3782 15.5455Z" fill="#635EFF"/>
<path fill-rule="evenodd" clip-rule="evenodd" d="M32.9058 15.5455C29.3412 15.5455 26.484 18.4093 26.484 21.9018C26.484 25.3943 29.3412 28.2581 32.9058 28.2581C34.3535 28.2581 35.527 29.4316 35.527 30.8792C35.527 32.3269 34.3535 33.5004 32.9058 33.5004C26.4819 33.5004 21.2417 28.3254 21.2417 21.9018C21.2417 15.4781 26.4819 10.3032 32.9058 10.3032C34.3535 10.3032 35.527 11.4767 35.527 12.9243C35.527 14.372 34.3535 15.5455 32.9058 15.5455Z" fill="#635EFF"/>
</svg>
