<svg width="41" height="41" viewBox="0 0 41 41" fill="none" xmlns="http://www.w3.org/2000/svg">
<rect x="1.53" y="1.53" width="37.94" height="37.94" rx="8.82" fill="#44444F" stroke="#FAFAFB" stroke-width="2.94"/>
<path d="M16.6115 32.162C18.7582 32.162 20.5004 30.4201 20.5004 28.2739V24.3857H16.6115C14.4649 24.3857 12.7227 26.1276 12.7227 28.2739C12.7227 30.4201 14.4649 32.162 16.6115 32.162Z" fill="#0ACF83"/>
<path d="M12.7227 20.498C12.7227 18.3517 14.4649 16.6099 16.6115 16.6099H20.5004V24.3861H16.6115C14.4649 24.3861 12.7227 22.6442 12.7227 20.498Z" fill="#A259FF"/>
<path d="M12.7227 12.7216C12.7227 10.5754 14.4649 8.8335 16.6115 8.8335H20.5004V16.6097H16.6115C14.4649 16.6097 12.7227 14.8678 12.7227 12.7216Z" fill="#F24E1E"/>
<path d="M20.5 8.8335H24.3889C26.5356 8.8335 28.2778 10.5754 28.2778 12.7216C28.2778 14.8678 26.5356 16.6097 24.3889 16.6097H20.5V8.8335Z" fill="#FF7262"/>
<path d="M28.2778 20.498C28.2778 22.6442 26.5356 24.3861 24.3889 24.3861C22.2422 24.3861 20.5 22.6442 20.5 20.498C20.5 18.3517 22.2422 16.6099 24.3889 16.6099C26.5356 16.6099 28.2778 18.3517 28.2778 20.498Z" fill="#1ABCFE"/>
</svg>
