<svg width="14" height="12" viewBox="0 0 14 12" fill="none" xmlns="http://www.w3.org/2000/svg">
<path d="M0.125 10.7251C0.125 11.2223 0.531237 11.6251 1.03176 11.6251H1.04479C0.536606 11.6251 0.125 11.2223 0.125 10.7251Z" fill="#FBBC05"/>
<path d="M7.9171 3.74998V6.09972L11.085 3.54448V1.275C11.085 0.777748 10.6788 0.375 10.1783 0.375H3.31509L3.30896 3.74998H7.9171Z" fill="#FBBC05"/>
<path d="M7.91719 8.45032H3.30139L3.29602 11.6251H10.1783C10.6796 11.6251 11.0851 11.2223 11.0851 10.7251V8.67607L7.91719 6.10059V8.45032Z" fill="#34A853"/>
<path d="M3.31514 0.375L0.125 3.74998H3.30977L3.31514 0.375Z" fill="#EA4335"/>
<path d="M0.125 8.4502V10.7249C0.125 11.2222 0.536606 11.6249 1.04479 11.6249H3.29597L3.30134 8.4502H0.125Z" fill="#1967D2"/>
<path d="M3.30977 3.75H0.125V8.45023H3.30134L3.30977 3.75Z" fill="#4285F4"/>
<path d="M13.8705 9.92502V2.20006C13.6919 1.17481 12.5674 2.35005 12.5674 2.35005L11.0858 3.5448V8.67552L13.2067 10.3998C13.9724 10.5003 13.8705 9.92502 13.8705 9.92502Z" fill="#34A853"/>
<path d="M7.91711 6.0999L11.0858 8.67614V3.54541L7.91711 6.0999Z" fill="#188038"/>
</svg>
