<svg width="52" height="52" viewBox="0 0 52 52" fill="none" xmlns="http://www.w3.org/2000/svg">
<rect y="0.000488281" width="52" height="52" rx="26" fill="#F5F5F8"/>
<path d="M42.6265 26.3696C42.6265 25.0026 42.5133 24.0051 42.2684 22.9707H26.3408V29.1404H35.6899C35.5015 30.6736 34.4837 32.9826 32.2217 34.5342L32.19 34.7408L37.226 38.5641L37.5749 38.5982C40.7792 35.698 42.6265 31.4309 42.6265 26.3696Z" fill="#4285F4"/>
<path d="M26.3403 42.6256C30.9206 42.6256 34.7657 41.1478 37.5744 38.5987L32.2212 34.5346C30.7887 35.5137 28.866 36.1972 26.3403 36.1972C21.8542 36.1972 18.0467 33.2971 16.6895 29.2886L16.4905 29.3051L11.254 33.2767L11.1855 33.4633C13.9752 38.8941 19.7053 42.6256 26.3403 42.6256Z" fill="#34A853"/>
<path d="M16.6904 29.2883C16.3322 28.2539 16.125 27.1455 16.125 26.0003C16.125 24.8549 16.3322 23.7466 16.6715 22.7122L16.662 22.4919L11.3599 18.4565L11.1864 18.5374C10.0367 20.791 9.37695 23.3218 9.37695 26.0003C9.37695 28.6787 10.0367 31.2093 11.1864 33.463L16.6904 29.2883Z" fill="#FBBC05"/>
<path d="M26.3404 15.8038C29.5258 15.8038 31.6746 17.1522 32.8999 18.2791L37.6876 13.698C34.7472 11.0195 30.9207 9.37549 26.3404 9.37549C19.7054 9.37549 13.9752 13.1068 11.1855 18.5376L16.6707 22.7124C18.0468 18.704 21.8543 15.8038 26.3404 15.8038Z" fill="#EB4335"/>
</svg>
