<svg width="41" height="41" viewBox="0 0 41 41" fill="none" xmlns="http://www.w3.org/2000/svg">
<rect x="1.53" y="1.53" width="37.94" height="37.94" rx="8.82" fill="#DC395F" stroke="#FAFAFB" stroke-width="2.94"/>
<path d="M30.0511 8.8335H10.9482C9.78001 8.8335 8.83301 9.7805 8.83301 10.9487V30.0516C8.83301 31.2198 9.78001 32.1668 10.9482 32.1668H30.0511C31.2193 32.1668 32.1663 31.2198 32.1663 30.0516V10.9487C32.1663 9.7805 31.2193 8.8335 30.0511 8.8335Z" fill="#DC395F"/>
<path fill-rule="evenodd" clip-rule="evenodd" d="M18.0567 14.7703C18.0567 15.5671 17.4069 16.1751 16.6313 16.1751C15.8556 16.1751 15.206 15.567 15.206 14.7703C15.206 13.9741 15.8556 13.3662 16.6313 13.3662C17.4069 13.3662 18.0567 13.9741 18.0567 14.7703ZM13.55 24.7515C13.55 24.4376 13.592 24.0528 13.6758 23.6964H13.6758L14.7447 19.3292H13.0889L13.592 17.4732H17.5747L16.0024 23.7097C15.8976 24.1083 15.8557 24.4389 15.8557 24.669C15.8557 25.0679 16.052 25.1845 16.359 25.2537C16.5459 25.2956 18.0355 25.2663 18.8465 23.4636L19.8791 19.3292H18.2021L18.7053 17.4732H22.2895L21.8285 19.5804C22.4572 18.4064 23.715 17.2909 24.9517 17.2909C26.2722 17.2909 27.3623 18.2317 27.3623 20.0343C27.3623 20.4954 27.2993 20.9971 27.1317 21.563L26.4608 23.9727C26.3981 24.2248 26.356 24.4341 26.356 24.6228C26.356 25.0418 26.5237 25.2513 26.8381 25.2513C27.1526 25.2513 27.5509 25.0202 28.0121 23.7423L28.9343 24.0983C28.3892 26.0059 27.4041 26.802 26.1674 26.802C24.721 26.802 24.0295 25.9432 24.0295 24.7689C24.0295 24.4338 24.0712 24.0772 24.176 23.7208L24.8678 21.2474C24.9517 20.9748 24.9726 20.7235 24.9726 20.4928C24.9726 19.6966 24.4906 19.2142 23.715 19.2142C22.7297 19.2142 22.0799 19.9214 21.7445 21.2839L20.4029 26.665H18.0554L18.4768 24.974C17.7867 26.1076 16.8283 26.8096 15.6461 26.8096C14.2207 26.8096 13.55 25.9885 13.55 24.7515Z" fill="white"/>
</svg>
