<svg width="36" height="36" viewBox="0 0 36 36" fill="none" xmlns="http://www.w3.org/2000/svg">
<circle cx="18" cy="18" r="15.75" fill="#FF3366"/>
<path d="M12.7793 12.2168C13.8666 12.2168 14.748 11.3354 14.748 10.248C14.748 9.16074 13.8666 8.2793 12.7793 8.2793C11.692 8.2793 10.8105 9.16074 10.8105 10.248C10.8105 11.3354 11.692 12.2168 12.7793 12.2168Z" fill="white"/>
<path d="M8.66602 13.9043L7.98047 16.418H10.2305C9.7793 18.252 8.83477 22.1098 8.66602 22.8691C8.45508 23.8184 8.41987 26.5254 11.2676 26.5254C13.2552 26.5254 14.523 25.2414 15.2301 24.1929L14.6953 26.332H17.8945L19.5645 19.5728C19.8018 18.4482 20.3603 16.2773 22.377 16.2773C24.7754 16.2773 23.8955 19.1174 23.4643 20.5093C23.4467 20.566 23.4299 20.6203 23.4141 20.6719C23.0906 21.7266 22.7461 22.957 22.7461 23.8008C22.7461 24.75 23.1855 26.5254 25.6465 26.5254C28.1074 26.5254 29.1562 24.0879 29.373 22.8691L28.125 22.3594C28.0371 23.0098 27.2461 24.416 26.5078 24.416C25.4971 24.416 26.0048 22.7121 26.5466 20.8936C26.7869 20.087 27.034 19.2579 27.1582 18.5449C27.4723 16.7424 27.1582 13.6758 24.0293 13.6758C22.086 13.6758 20.56 15.4074 19.8341 16.6096L20.4434 13.9043H15.5742L14.9062 16.418H17.1738C17.1738 16.418 15.8282 21.9018 15.7412 22.0737C14.8271 23.8799 13.4447 24.4862 12.4102 24.416C11.5805 24.3598 11.6777 23.3613 11.8301 22.8691L14.0801 13.9043H8.66602Z" fill="white"/>
</svg>
