<svg width="70" height="70" viewBox="0 0 70 70" fill="none" xmlns="http://www.w3.org/2000/svg">
<rect x="1.5" y="1.5" width="67" height="67" rx="11.5" fill="#171725" fill-opacity="0.06"/>
<rect x="1.5" y="1.5" width="67" height="67" rx="11.5" stroke="#FAFAFB" stroke-width="3"/>
<path d="M3 11.5333C3 6.8205 6.8205 3 11.5333 3H58.4667C63.1795 3 67 6.8205 67 11.5333V58.4667C67 63.1795 63.1795 67 58.4667 67H11.5333C6.8205 67 3 63.1795 3 58.4667V11.5333Z" fill="#3080E3"/>
<path d="M38.7898 36.8544C38.7898 33.01 41.9063 29.8936 45.7507 29.8936C49.595 29.8936 52.7115 33.01 52.7115 36.8544V38.5758C52.7115 42.4202 49.595 45.5367 45.7507 45.5367C41.9063 45.5367 38.7898 42.4202 38.7898 38.5758V36.8544Z" fill="#FCFBF9"/>
<path fill-rule="evenodd" clip-rule="evenodd" d="M33.3946 37.9454V15.7454H35.5889V15.1128H17.2886V15.7454H19.4729V40.0296C19.3879 47.4041 24.2022 60.2212 44.1398 52.4942C37.5883 52.4942 33.3946 49.9443 33.3946 37.9454Z" fill="#FCFBF9"/>
</svg>
