<svg width="36" height="36" viewBox="0 0 36 36" fill="none" xmlns="http://www.w3.org/2000/svg">
<path d="M20.8794 2.34277L20.865 9.27338L20.8506 16.204L20.189 14.5951V14.591L19.3309 30.0198C20.1747 32.066 20.6253 33.1592 20.6301 33.1633C20.6349 33.1675 21.1143 33.1922 21.6943 33.217C23.4489 33.2912 25.6254 33.4521 27.2793 33.6295C27.6628 33.6708 27.9888 33.6914 28.0128 33.6749C28.0367 33.6584 28.0415 26.604 28.0367 17.9944L28.0224 2.34277H20.8794Z" fill="url(#paint0_linear_613_4562)"/>
<path d="M7.95801 2.32248V17.9906C7.95801 26.6085 7.9676 33.667 7.98198 33.6794C7.99636 33.6918 8.61478 33.6382 9.36264 33.568C10.1105 33.4979 11.1412 33.4071 11.6541 33.37C12.4404 33.3123 14.799 33.1844 15.0674 33.1802C15.1489 33.1802 15.1537 32.8296 15.1633 26.5425L15.1777 19.9048L15.7482 21.2909C15.8345 21.5055 15.8632 21.5715 15.9495 21.7819L16.8076 6.3571C16.6255 5.91568 16.7214 6.1467 16.5152 5.64341C15.8153 3.93963 15.2208 2.49988 15.1969 2.43387L15.1489 2.31836H7.95801V2.32248Z" fill="url(#paint1_linear_613_4562)"/>
<path d="M7.95801 2.32248L15.1729 19.9171V19.9088L15.7434 21.2949C18.9123 29.0135 20.6141 33.1553 20.6237 33.1636C20.6285 33.1677 21.1079 33.1924 21.688 33.2172C23.4426 33.2915 25.619 33.4523 27.273 33.6297C27.6517 33.671 27.9825 33.6916 28.0016 33.6751L20.849 16.2001V16.2043L20.1875 14.5954C19.5403 13.0236 19.1088 11.9717 16.5057 5.64339C15.8058 3.93962 15.2113 2.49987 15.1873 2.43387L15.1394 2.31836H11.5487L7.95801 2.32248Z" fill="#E30A17"/>
<defs>
<linearGradient id="paint0_linear_613_4562" x1="31.2584" y1="25.774" x2="19.8258" y2="30.7948" gradientUnits="userSpaceOnUse">
<stop stop-color="#B20610"/>
<stop offset="0.255959" stop-color="#B20610"/>
<stop offset="1" stop-color="#590004"/>
</linearGradient>
<linearGradient id="paint1_linear_613_4562" x1="4.49112" y1="9.19279" x2="16.8551" y2="3.82568" gradientUnits="userSpaceOnUse">
<stop stop-color="#B20610"/>
<stop offset="0.255959" stop-color="#B20610"/>
<stop offset="1" stop-color="#590004"/>
</linearGradient>
</defs>
</svg>
