<svg width="35" height="35" viewBox="0 0 35 35" fill="none" xmlns="http://www.w3.org/2000/svg">
<rect width="35" height="35" rx="7.35" fill="#FAFAFB"/>
<path d="M10.9137 7.50952L17.4762 6.80566L24.0387 7.50952L29.1193 14.4288L17.4762 28.1839L5.83301 14.4288L10.9137 7.50952Z" fill="#FDB300"/>
<path d="M10.5491 14.4287L17.4762 28.1838L5.83301 14.4287H10.5491Z" fill="#EA6C00"/>
<path d="M24.4031 14.4287L17.476 28.1838L29.1191 14.4287H24.4031Z" fill="#EA6C00"/>
<path d="M10.5488 14.4287H24.403L17.4759 28.1838L10.5488 14.4287Z" fill="#FDAD00"/>
<path d="M17.4759 6.80566L10.9134 7.50951L10.5488 14.4288L17.4759 6.80566Z" fill="#FDD231"/>
<path d="M17.4762 6.80566L24.0388 7.50951L24.4033 14.4288L17.4762 6.80566Z" fill="#FDD231"/>
<path d="M29.1191 14.4286L24.0385 7.50928L24.4031 14.4286H29.1191Z" fill="#FDAD00"/>
<path d="M5.83301 14.4286L10.9136 7.50928L10.5491 14.4286H5.83301Z" fill="#FDAD00"/>
<path d="M17.4759 6.80566L10.5488 14.4288H24.403L17.4759 6.80566Z" fill="#FEEEB7"/>
</svg>
