<svg width="48" height="48" viewBox="0 0 48 48" fill="none" xmlns="http://www.w3.org/2000/svg">
<path d="M39.7503 22.4998C41.8212 22.4998 43.5 20.8211 43.5 18.7502C43.5 16.6793 41.8211 15.0005 39.7502 15.0005C37.6791 15.0005 36 16.6794 36 18.7505V22.4998H39.7503ZM29.25 22.4998C31.3211 22.4998 33 20.8209 33 18.7498V8.25049C33 6.17942 31.3211 4.50049 29.25 4.50049C27.1789 4.50049 25.5 6.17942 25.5 8.25049V18.7498C25.5 20.8209 27.1789 22.4998 29.25 22.4998Z" fill="#2EB67D"/>
<path d="M8.24968 25.5002C6.17879 25.5002 4.5 27.1789 4.5 29.2498C4.5 31.3207 6.17895 32.9995 8.24984 32.9995C10.3209 32.9995 12 31.3206 12 29.2495V25.5002H8.24968ZM18.75 25.5002C16.6789 25.5002 15 27.1791 15 29.2502V39.7495C15 41.8206 16.6789 43.4995 18.75 43.4995C20.8211 43.4995 22.5 41.8206 22.5 39.7495V29.2502C22.5 27.1791 20.8211 25.5002 18.75 25.5002Z" fill="#E01E5A"/>
<path d="M25.5003 39.7503C25.5003 41.8212 27.1791 43.5 29.25 43.5C31.3208 43.5 32.9996 41.8211 32.9996 39.7502C32.9996 37.6791 31.3207 36 29.2496 36L25.5003 36L25.5003 39.7503ZM25.5003 29.25C25.5003 31.3211 27.1792 33 29.2503 33L39.7496 33C41.8207 33 43.4996 31.3211 43.4996 29.25C43.4996 27.1789 41.8207 25.5 39.7496 25.5L29.2503 25.5C27.1792 25.5 25.5003 27.1789 25.5003 29.25Z" fill="#ECB22E"/>
<path d="M22.4996 8.24968C22.4996 6.17879 20.8208 4.5 18.7499 4.5C16.679 4.5 15.0002 6.17895 15.0002 8.24984C15.0002 10.3209 16.6792 12 18.7502 12L22.4996 12L22.4996 8.24968ZM22.4996 18.75C22.4996 16.6789 20.8207 15 18.7496 15L8.25025 15C6.17918 15 4.50024 16.6789 4.50024 18.75C4.50024 20.8211 6.17918 22.5 8.25024 22.5L18.7496 22.5C20.8207 22.5 22.4996 20.8211 22.4996 18.75Z" fill="#36C5F0"/>
</svg>
