<svg width="18" height="18" viewBox="0 0 18 18" fill="none" xmlns="http://www.w3.org/2000/svg">
<path fill-rule="evenodd" clip-rule="evenodd" d="M9 14.4167L5.17579 16.4132C4.62533 16.7006 3.98407 16.2327 4.08975 15.6208L4.81891 11.399L1.72916 8.40824C1.28145 7.97486 1.52691 7.21618 2.14364 7.12719L6.41789 6.51042L8.32844 2.66616C8.60422 2.11128 9.39578 2.11128 9.67155 2.66616L11.5821 6.51042L15.8564 7.12719C16.4731 7.21618 16.7185 7.97486 16.2708 8.40824L13.1811 11.399L13.9102 15.6208C14.0159 16.2327 13.3747 16.7006 12.8242 16.4132L9 14.4167Z" fill="#DADADA"/>
<path fill-rule="evenodd" clip-rule="evenodd" d="M9.37418 2.34826C9.02292 2.14794 8.53333 2.25391 8.32844 2.66616L6.41789 6.51042L2.14364 7.12719C1.52691 7.21618 1.28145 7.97486 1.72916 8.40824L4.81891 11.399L4.08975 15.6208C3.98407 16.2327 4.62533 16.7006 5.17579 16.4132L9 14.4167L9.37418 14.612V2.34826Z" fill="#FFC542"/>
</svg>
