<svg width="48" height="48" viewBox="0 0 48 48" fill="none" xmlns="http://www.w3.org/2000/svg">
<path d="M0 6.4C0 2.86538 2.86538 0 6.4 0H41.6C45.1346 0 48 2.86538 48 6.4V41.6C48 45.1346 45.1346 48 41.6 48H6.4C2.86538 48 0 45.1346 0 41.6V6.4Z" fill="#3080E3"/>
<path d="M26.8423 25.3906C26.8423 22.5073 29.1797 20.1699 32.0629 20.1699C34.9462 20.1699 37.2836 22.5073 37.2836 25.3906V26.6816C37.2836 29.5649 34.9462 31.9023 32.0629 31.9023C29.1797 31.9023 26.8423 29.5649 26.8423 26.6816V25.3906Z" fill="#FCFBF9"/>
<path fill-rule="evenodd" clip-rule="evenodd" d="M22.7961 26.2089V9.55894H24.4418V9.08447H10.7166V9.55894H12.3548V27.7721C12.2911 33.3029 15.9018 42.9158 30.855 37.1205C25.9414 37.1205 22.7961 35.2081 22.7961 26.2089Z" fill="#FCFBF9"/>
</svg>
