<svg width="48" height="48" viewBox="0 0 48 48" fill="none" xmlns="http://www.w3.org/2000/svg">
<path d="M8.6962 10.4937L3.06836 15.595L5.01564 18.0469C5.88283 17.5078 7.6172 16.1016 8.39064 16.1016C10.125 16.1016 11.6842 20.8009 13.1719 25.9688C14.5078 30.6094 15.8906 42.1406 22.2656 42.1406C29.6016 42.1406 45.0235 22.3359 45.0235 13.5215C45.0235 10.3321 44.3906 5.74219 38.0391 5.74219C31.2328 5.74219 27.8843 12.3107 27.0608 15.595C27.6532 15.2 29.2658 14.9367 30.1544 14.9367C33.7747 14.9367 33.0015 18.6892 32.5078 20.2031C32.0142 21.717 28.2188 29.0886 26.1722 29.0886C23.6709 29.0886 22.1899 18.2278 21.4658 13.5215C20.7418 8.81519 18.8658 6.24811 16.0025 6.24811C13.7119 6.24811 10.1772 9.0785 8.6962 10.4937Z" fill="#3CB9E6"/>
</svg>
